<svg xmlns="http://www.w3.org/2000/svg" viewBox="0 0 2500 1000">
  <rect width="2500" height="1000" fill="#d7ded8" />
  <rect y="610" width="2500" height="390" fill="#8da26e" />
  <rect y="690" width="2500" height="310" fill="#6d8453" opacity="0.5" />
  <rect y="460" width="2500" height="154" fill="#c4d1c0" opacity="0.55" />
  <path d="M754 450 960 282 1152 450 1318 306 1490 450 1692 274 1860 450 1860 758 716 758 716 514Z" fill="#232831" />
  <path d="M960 282h192l-96-130Z" fill="#171b22" />
  <path d="M1318 306h172l-86-126Z" fill="#171b22" />
  <path d="M1692 274h168l-84-118Z" fill="#171b22" />
  <rect x="768" y="454" width="150" height="304" fill="#101318" />
  <rect x="1010" y="474" width="140" height="122" fill="#dbcfc0" />
  <rect x="1534" y="470" width="258" height="248" fill="#d8cfbf" opacity="0.92" />
  <rect x="1534" y="470" width="258" height="248" fill="#ffffff" opacity="0.18" />
  <circle cx="340" cy="286" r="68" fill="#eff3e8" opacity="0.68" />
  <rect x="0" y="752" width="2500" height="28" fill="#516345" />
  <rect x="0" y="844" width="2500" height="20" fill="#4c6040" opacity="0.76" />
  <text x="124" y="182" fill="#20231e" font-family="Georgia, serif" font-size="46">mock landscape / midnight</text>
</svg>
