<svg xmlns="http://www.w3.org/2000/svg" viewBox="0 0 1000 2500">
  <rect width="1000" height="2500" fill="#eadfce" />
  <rect x="74" y="92" width="852" height="196" fill="#f5ecdf" />
  <rect x="74" y="288" width="252" height="1784" fill="#d9c1a0" />
  <rect x="326" y="288" width="600" height="914" fill="#efb271" />
  <rect x="326" y="1202" width="600" height="870" fill="#f7f1e7" />
  <rect x="390" y="356" width="472" height="600" fill="#fff4e2" opacity="0.52" />
  <path d="M406 956h378v1116H406z" fill="#b46d3b" opacity="0.18" />
  <path d="M470 380c0-86 72-158 160-158s160 72 160 158v540H470z" fill="#7f4f32" />
  <path d="M520 432c0-58 50-106 110-106s110 48 110 106v436H520z" fill="#f2dbc0" />
  <rect x="148" y="404" width="116" height="1250" fill="#b97b4f" />
  <rect x="148" y="1712" width="116" height="240" fill="#8a5a38" />
  <rect x="520" y="1510" width="130" height="404" fill="#f0ab5a" />
  <rect x="668" y="1510" width="130" height="404" fill="#c06b2e" />
  <rect x="456" y="2126" width="342" height="188" fill="#1e1b1a" />
  <line x1="74" y1="2220" x2="926" y2="2220" stroke="#53453a" stroke-width="8" />
  <text x="124" y="2348" fill="#1f1a18" font-family="Arial Black, Arial, sans-serif" font-size="128">KOPIO</text>
  <text x="124" y="2442" fill="#6a5647" font-family="Georgia, serif" font-size="38">mock portrait / amber</text>
</svg>
